<mxfile host="app.diagrams.net" agent="Mozilla/5.0 (Windows NT 10.0; Win64; x64) AppleWebKit/537.36 (KHTML, like Gecko) Chrome/137.0.0.0 Safari/537.36" version="27.2.0">
  <diagram name="Page-1" id="CBk7roLamCVoZusPBPZk">
    <mxGraphModel dx="1042" dy="1627" grid="1" gridSize="10" guides="1" tooltips="1" connect="1" arrows="1" fold="1" page="1" pageScale="1" pageWidth="850" pageHeight="1100" math="0" shadow="0">
      <root>
        <mxCell id="0" />
        <mxCell id="1" parent="0" />
        <mxCell id="xhv_hJWSGgYIQjWlP3cV-11" style="edgeStyle=orthogonalEdgeStyle;rounded=0;orthogonalLoop=1;jettySize=auto;html=1;" edge="1" parent="1" source="xhv_hJWSGgYIQjWlP3cV-1" target="xhv_hJWSGgYIQjWlP3cV-10">
          <mxGeometry relative="1" as="geometry" />
        </mxCell>
        <mxCell id="xhv_hJWSGgYIQjWlP3cV-1" value="Authorization&lt;div&gt;Server&lt;/div&gt;" style="rounded=0;whiteSpace=wrap;html=1;" vertex="1" parent="1">
          <mxGeometry x="710" y="40" width="120" height="60" as="geometry" />
        </mxCell>
        <mxCell id="xhv_hJWSGgYIQjWlP3cV-2" value="Authentication&amp;nbsp;&lt;div&gt;Server&lt;/div&gt;" style="rounded=0;whiteSpace=wrap;html=1;" vertex="1" parent="1">
          <mxGeometry x="220" y="40" width="120" height="60" as="geometry" />
        </mxCell>
        <mxCell id="xhv_hJWSGgYIQjWlP3cV-3" value="MicroService-01" style="rounded=0;whiteSpace=wrap;html=1;" vertex="1" parent="1">
          <mxGeometry x="560" y="240" width="120" height="60" as="geometry" />
        </mxCell>
        <mxCell id="xhv_hJWSGgYIQjWlP3cV-4" value="MicroService-02" style="rounded=0;whiteSpace=wrap;html=1;" vertex="1" parent="1">
          <mxGeometry x="720" y="240" width="120" height="60" as="geometry" />
        </mxCell>
        <mxCell id="xhv_hJWSGgYIQjWlP3cV-5" value="MicroService-03" style="rounded=0;whiteSpace=wrap;html=1;" vertex="1" parent="1">
          <mxGeometry x="870" y="240" width="120" height="60" as="geometry" />
        </mxCell>
        <mxCell id="xhv_hJWSGgYIQjWlP3cV-6" value="" style="endArrow=classic;html=1;rounded=0;exitX=0.5;exitY=0;exitDx=0;exitDy=0;entryX=0.5;entryY=1;entryDx=0;entryDy=0;" edge="1" parent="1" source="xhv_hJWSGgYIQjWlP3cV-3" target="xhv_hJWSGgYIQjWlP3cV-1">
          <mxGeometry width="50" height="50" relative="1" as="geometry">
            <mxPoint x="640" y="210" as="sourcePoint" />
            <mxPoint x="690" y="160" as="targetPoint" />
          </mxGeometry>
        </mxCell>
        <mxCell id="xhv_hJWSGgYIQjWlP3cV-9" value="Register Service&lt;div&gt;as&amp;nbsp;&lt;span style=&quot;background-color: light-dark(#ffffff, var(--ge-dark-color, #121212)); color: light-dark(rgb(0, 0, 0), rgb(255, 255, 255));&quot;&gt;Client&lt;/span&gt;&lt;/div&gt;&lt;div&gt;and GET&amp;nbsp;&lt;/div&gt;&lt;div&gt;&lt;b&gt;Client-ID&lt;/b&gt;&lt;/div&gt;&lt;div&gt;&lt;b&gt;Client-Secret&lt;/b&gt;&lt;/div&gt;" style="edgeLabel;html=1;align=center;verticalAlign=middle;resizable=0;points=[];" vertex="1" connectable="0" parent="xhv_hJWSGgYIQjWlP3cV-6">
          <mxGeometry x="-0.0883" relative="1" as="geometry">
            <mxPoint as="offset" />
          </mxGeometry>
        </mxCell>
        <mxCell id="xhv_hJWSGgYIQjWlP3cV-7" value="" style="endArrow=classic;html=1;rounded=0;exitX=0.5;exitY=0;exitDx=0;exitDy=0;entryX=0.56;entryY=1.073;entryDx=0;entryDy=0;entryPerimeter=0;" edge="1" parent="1" source="xhv_hJWSGgYIQjWlP3cV-4" target="xhv_hJWSGgYIQjWlP3cV-1">
          <mxGeometry width="50" height="50" relative="1" as="geometry">
            <mxPoint x="650" y="350" as="sourcePoint" />
            <mxPoint x="800" y="210" as="targetPoint" />
          </mxGeometry>
        </mxCell>
        <mxCell id="xhv_hJWSGgYIQjWlP3cV-8" value="" style="endArrow=classic;html=1;rounded=0;exitX=0.5;exitY=0;exitDx=0;exitDy=0;entryX=0.667;entryY=1;entryDx=0;entryDy=0;entryPerimeter=0;" edge="1" parent="1" source="xhv_hJWSGgYIQjWlP3cV-5" target="xhv_hJWSGgYIQjWlP3cV-1">
          <mxGeometry width="50" height="50" relative="1" as="geometry">
            <mxPoint x="793" y="316" as="sourcePoint" />
            <mxPoint x="790" y="180" as="targetPoint" />
          </mxGeometry>
        </mxCell>
        <mxCell id="xhv_hJWSGgYIQjWlP3cV-10" value="ActiveDirectory" style="verticalLabelPosition=top;html=1;verticalAlign=bottom;align=center;strokeColor=none;fillColor=#00BEF2;shape=mxgraph.azure.azure_active_directory;labelPosition=center;" vertex="1" parent="1">
          <mxGeometry x="746.25" y="-100" width="47.5" height="50" as="geometry" />
        </mxCell>
      </root>
    </mxGraphModel>
  </diagram>
</mxfile>
